REM DIRINDEX 1\2,1\3\5,1\3\6,1\4\7,1\4\8
REM DIRNAME folder01,folder02,folder03,folder04,folder05,folder06,folder07,folder08
TITLE ""
FILE "EG_E3_23.mp3" MP3
  TRACK 01 AUDIO
    TITLE "0:"
    INDEX 01 00:00:00
  TRACK 02 AUDIO
    TITLE "5:cjc139_2415"
    INDEX 01 00:00:17
  TRACK 03 AUDIO
    TITLE "6:cjc139_2416"
    INDEX 01 00:02:18
  TRACK 04 AUDIO
    TITLE "5:cjc139_2417"
    INDEX 01 00:05:01
  TRACK 05 AUDIO
    TITLE "6:cjc139_2418"
    INDEX 01 00:07:33
  TRACK 06 AUDIO
    TITLE "5:cjc139_2419"
    INDEX 01 00:10:19
  TRACK 07 AUDIO
    TITLE "6:cjc139_2420"
    INDEX 01 00:12:52
  TRACK 08 AUDIO
    TITLE "5:cjc139_2421"
    INDEX 01 00:15:36
  TRACK 09 AUDIO
    TITLE "6:cjc139_2422"
    INDEX 01 00:18:48
  TRACK 10 AUDIO
    TITLE "5:cjc139_2423"
    INDEX 01 00:21:33
  TRACK 11 AUDIO
    TITLE "6:cjc139_2424"
    INDEX 01 00:23:44
  TRACK 12 AUDIO
    TITLE "5:cjc139_2425"
    INDEX 01 00:26:32
  TRACK 13 AUDIO
    TITLE "6:cjc139_2426"
    INDEX 01 00:28:74
  TRACK 14 AUDIO
    TITLE "5:cjc139_2427"
    INDEX 01 00:31:57
  TRACK 15 AUDIO
    TITLE "6:cjc139_2428"
    INDEX 01 00:34:24
  TRACK 16 AUDIO
    TITLE "5:cjc139_2429"
    INDEX 01 00:37:10
  TRACK 17 AUDIO
    TITLE "6:cjc139_2430"
    INDEX 01 00:40:11
  TRACK 18 AUDIO
    TITLE "5:cjc139_2431"
    INDEX 01 00:42:70
  TRACK 19 AUDIO
    TITLE "6:cjc139_2432"
    INDEX 01 00:45:20
  TRACK 20 AUDIO
    TITLE "5:cjc139_2433"
    INDEX 01 00:48:04
  TRACK 21 AUDIO
    TITLE "6:cjc139_2434"
    INDEX 01 00:50:52
  TRACK 22 AUDIO
    TITLE "5:cjc139_2435"
    INDEX 01 00:53:39
  TRACK 23 AUDIO
    TITLE "6:cjc139_2436"
    INDEX 01 00:55:73
  TRACK 24 AUDIO
    TITLE "5:cjc139_2437"
    INDEX 01 00:58:58
  TRACK 25 AUDIO
    TITLE "6:cjc139_2438"
    INDEX 01 01:01:13
  TRACK 26 AUDIO
    TITLE "5:cjc139_2439"
    INDEX 01 01:04:00
  TRACK 27 AUDIO
    TITLE "6:cjc139_2440"
    INDEX 01 01:07:02
  TRACK 28 AUDIO
    TITLE "5:cjc139_2441"
    INDEX 01 01:09:63
  TRACK 29 AUDIO
    TITLE "6:cjc139_2442"
    INDEX 01 01:12:28
  TRACK 30 AUDIO
    TITLE "5:cjc139_2443"
    INDEX 01 01:15:15
  TRACK 31 AUDIO
    TITLE "6:cjc139_2444"
    INDEX 01 01:17:71
  TRACK 32 AUDIO
    TITLE "5:cjc139_2445"
    INDEX 01 01:20:55
  TRACK 33 AUDIO
    TITLE "6:cjc139_2446"
    INDEX 01 01:23:62
  TRACK 34 AUDIO
    TITLE "5:cjc139_2447"
    INDEX 01 01:26:48
  TRACK 35 AUDIO
    TITLE "6:cjc139_2448"
    INDEX 01 01:29:07
  TRACK 36 AUDIO
    TITLE "5:cjc139_2449"
    INDEX 01 01:31:67
  TRACK 37 AUDIO
    TITLE "6:cjc139_2450"
    INDEX 01 01:34:32
  TRACK 38 AUDIO
    TITLE "5:cjc139_2451"
    INDEX 01 01:37:15
  TRACK 39 AUDIO
    TITLE "6:cjc139_2452"
    INDEX 01 01:38:49
  TRACK 40 AUDIO
    TITLE "5:cjc139_2453"
    INDEX 01 01:41:34
  TRACK 41 AUDIO
    TITLE "6:cjc139_2454"
    INDEX 01 01:43:56
  TRACK 42 AUDIO
    TITLE "5:cjc139_2455"
    INDEX 01 01:46:41
  TRACK 43 AUDIO
    TITLE "6:cjc139_2456"
    INDEX 01 01:48:46
  TRACK 44 AUDIO
    TITLE "5:cjc139_2457"
    INDEX 01 01:51:30
  TRACK 45 AUDIO
    TITLE "6:cjc139_2458"
    INDEX 01 01:53:39
  TRACK 46 AUDIO
    TITLE "5:cjc139_2459"
    INDEX 01 01:56:22
  TRACK 47 AUDIO
    TITLE "6:cjc139_2460"
    INDEX 01 01:58:30
  TRACK 48 AUDIO
    TITLE "5:cjc139_2461"
    INDEX 01 02:01:15
  TRACK 49 AUDIO
    TITLE "6:cjc139_2462"
    INDEX 01 02:02:69
  TRACK 50 AUDIO
    TITLE "5:cjc139_2463"
    INDEX 01 02:05:54
  TRACK 51 AUDIO
    TITLE "6:cjc139_2464"
    INDEX 01 02:08:21
  TRACK 52 AUDIO
    TITLE "5:cjc139_2465"
    INDEX 01 02:11:04
  TRACK 53 AUDIO
    TITLE "6:cjc139_2466"
    INDEX 01 02:12:70
  TRACK 54 AUDIO
    TITLE "5:cjc139_2467"
    INDEX 01 02:15:54
  TRACK 55 AUDIO
    TITLE "6:cjc139_2468"
    INDEX 01 02:17:55
  TRACK 56 AUDIO
    TITLE "5:cjc139_2469"
    INDEX 01 02:20:42
  TRACK 57 AUDIO
    TITLE "6:cjc139_2470"
    INDEX 01 02:23:21
  TRACK 58 AUDIO
    TITLE "5:cjc139_2471"
    INDEX 01 02:26:05
  TRACK 59 AUDIO
    TITLE "6:cjc139_2472"
    INDEX 01 02:28:45
  TRACK 60 AUDIO
    TITLE "5:cjc139_2473"
    INDEX 01 02:31:30
  TRACK 61 AUDIO
    TITLE "6:cjc139_2474"
    INDEX 01 02:33:56
  TRACK 62 AUDIO
    TITLE "5:cjc139_2475"
    INDEX 01 02:36:39
  TRACK 63 AUDIO
    TITLE "6:cjc139_2476"
    INDEX 01 02:38:30
  TRACK 64 AUDIO
    TITLE "5:cjc139_2477"
    INDEX 01 02:41:21
  TRACK 65 AUDIO
    TITLE "6:cjc139_2478"
    INDEX 01 02:43:12
  TRACK 66 AUDIO
    TITLE "5:cjc139_2479"
    INDEX 01 02:45:73
  TRACK 67 AUDIO
    TITLE "6:cjc139_2480"
    INDEX 01 02:48:23
  TRACK 68 AUDIO
    TITLE "5:cjc139_2481"
    INDEX 01 02:51:07
  TRACK 69 AUDIO
    TITLE "6:cjc139_2482"
    INDEX 01 02:53:41
  TRACK 70 AUDIO
    TITLE "5:cjc139_2483"
    INDEX 01 02:56:24
  TRACK 71 AUDIO
    TITLE "6:cjc139_2484"
    INDEX 01 02:58:37
  TRACK 72 AUDIO
    TITLE "5:cjc139_2485"
    INDEX 01 03:01:23
  TRACK 73 AUDIO
    TITLE "6:cjc139_2486"
    INDEX 01 03:03:73
  TRACK 74 AUDIO
    TITLE "5:cjc139_2487"
    INDEX 01 03:06:58
  TRACK 75 AUDIO
    TITLE "6:cjc139_2488"
    INDEX 01 03:09:23
  TRACK 76 AUDIO
    TITLE "5:cjc139_2489"
    INDEX 01 03:12:07
  TRACK 77 AUDIO
    TITLE "6:cjc139_2490"
    INDEX 01 03:14:71
  TRACK 78 AUDIO
    TITLE "5:cjc139_2491"
    INDEX 01 03:17:59
  TRACK 79 AUDIO
    TITLE "6:cjc139_2492"
    INDEX 01 03:20:28
  TRACK 80 AUDIO
    TITLE "5:cjc139_2493"
    INDEX 01 03:23:13
  TRACK 81 AUDIO
    TITLE "6:cjc139_2494"
    INDEX 01 03:26:58
  TRACK 82 AUDIO
    TITLE "5:cjc139_2495"
    INDEX 01 03:29:37
  TRACK 83 AUDIO
    TITLE "6:cjc139_2496"
    INDEX 01 03:32:53
  TRACK 84 AUDIO
    TITLE "0:"
    INDEX 01 03:35:46
